<?xml version="1.0" standalone="no"?>
<!DOCTYPE svg PUBLIC "-//W3C//DTD SVG 20010904//EN"
 "http://www.w3.org/TR/2001/REC-SVG-20010904/DTD/svg10.dtd">
<svg version="1.0" xmlns="http://www.w3.org/2000/svg"
 width="1024.000000pt" height="1024.000000pt" viewBox="0 0 1024.000000 1024.000000"
 preserveAspectRatio="xMidYMid meet">
<metadata>
Created by potrace 1.14, written by Peter Selinger 2001-2017
</metadata>
<g transform="translate(0.000000,1024.000000) scale(0.100000,-0.100000)"
fill="#000000" stroke="none">
<path d="M7528 9515 c-1 -2 -46 -6 -98 -9 -52 -3 -117 -8 -145 -11 -97 -11
-350 -47 -356 -51 -4 -2 -24 -6 -45 -10 -152 -23 -524 -136 -684 -207 -210
-93 -516 -261 -528 -289 -2 -4 -9 -8 -16 -8 -6 0 -27 -13 -46 -30 -19 -16 -39
-29 -43 -30 -4 0 -20 -11 -35 -25 -15 -14 -32 -25 -39 -25 -7 0 -13 -3 -13 -7
0 -5 -17 -19 -37 -33 -20 -14 -44 -32 -52 -40 -9 -9 -41 -36 -71 -60 -117 -95
-222 -192 -370 -340 -107 -106 -161 -165 -272 -292 -20 -23 -77 -93 -98 -120
-8 -10 -28 -33 -43 -51 -15 -18 -58 -74 -94 -124 -37 -51 -71 -93 -75 -93 -4
0 -8 -7 -8 -15 0 -8 -4 -15 -10 -15 -5 0 -10 -6 -10 -14 0 -8 -4 -16 -8 -18
-5 -1 -50 -65 -101 -140 l-91 -138 -908 -1 c-499 -1 -918 -2 -932 -3 -185 -18
-401 -126 -559 -279 -79 -77 -91 -95 -203 -320 -196 -393 -702 -1412 -703
-1417 0 -3 -16 -34 -34 -70 -79 -154 -95 -246 -62 -364 36 -131 161 -251 291
-282 19 -4 38 -9 43 -10 4 -1 421 -2 927 -3 l920 -1 -44 -42 c-254 -243 -339
-324 -347 -326 -5 -2 -9 -10 -9 -17 0 -7 -4 -15 -9 -17 -19 -6 -82 -125 -103
-193 -27 -87 -31 -286 -8 -350 8 -22 14 -42 15 -45 0 -3 14 -32 30 -65 26 -51
100 -130 500 -530 259 -258 482 -478 494 -489 91 -71 209 -108 351 -110 110
-1 139 3 205 27 114 41 174 88 345 267 85 90 171 178 190 197 l35 35 2 -134
c2 -73 4 -495 5 -939 l3 -805 37 -75 c52 -106 140 -185 244 -219 56 -19 165
-21 225 -3 28 8 342 161 698 339 355 178 649 323 654 323 4 0 13 5 20 11 6 6
118 64 248 129 296 148 350 188 455 342 71 105 98 159 131 266 l28 88 2 950 3
950 28 23 c15 12 36 28 48 35 22 12 161 106 179 120 5 4 75 57 155 118 80 61
159 122 175 137 17 15 57 50 90 77 103 86 117 98 194 170 152 140 339 334 421
435 25 30 47 57 50 60 77 75 438 590 413 590 -3 0 0 8 8 18 8 9 25 40 39 67
14 28 28 52 33 53 4 2 7 9 7 16 0 7 9 30 19 52 71 147 154 368 187 502 8 31
19 73 25 92 13 48 18 68 29 120 16 71 48 251 54 295 3 22 7 56 10 75 2 19 7
62 10 95 3 33 9 96 13 140 14 153 6 872 -12 1045 -2 19 -6 73 -10 120 -3 47
-8 94 -10 105 -2 11 -7 44 -10 74 -21 199 -68 449 -95 501 -36 69 -100 112
-195 131 -66 13 -267 48 -315 54 -25 3 -56 8 -70 10 -22 4 -90 11 -185 20 -16
2 -82 7 -145 10 -63 4 -137 9 -165 11 -67 5 -762 13 -767 9z m-38 -1529 c30
-9 63 -18 72 -21 31 -7 152 -74 183 -100 134 -114 210 -236 246 -395 27 -119
12 -311 -32 -407 -10 -23 -19 -46 -19 -50 0 -23 -97 -150 -163 -212 -50 -47
-184 -125 -231 -136 -6 -1 -22 -5 -36 -8 -61 -16 -91 -19 -190 -20 -131 -1
-225 21 -340 77 -138 67 -229 170 -304 346 -49 116 -53 403 -6 499 79 165 121
221 217 297 96 76 219 130 333 146 58 8 219 -2 270 -16z"/>
</g>
</svg>
